<?xml version="1.0" encoding="UTF-8" standalone="no"?>
<!DOCTYPE svg PUBLIC "-//W3C//DTD SVG 1.1//EN"
 "http://www.w3.org/Graphics/SVG/1.1/DTD/svg11.dtd">
<!-- Generated by graphviz version 2.47.0 (20210316.0004)
 -->
<!-- Title: dependencies Pages: 1 -->
<svg width="1076pt" height="363pt"
 viewBox="0.00 0.00 1076.00 363.00" xmlns="http://www.w3.org/2000/svg" xmlns:xlink="http://www.w3.org/1999/xlink">
<g id="graph0" class="graph" transform="scale(1 1) rotate(0) translate(4 359)">
<title>dependencies</title>
<polygon fill="white" stroke="transparent" points="-4,4 -4,-359 1072,-359 1072,4 -4,4"/>
<text text-anchor="start" x="513.01" y="-42.4" font-family="Times-12" font-weight="bold" font-size="14.00">Legend</text>
<polygon fill="#ffffb3" stroke="transparent" points="300,-10 300,-30 320,-30 320,-10 300,-10"/>
<text text-anchor="start" x="323.63" y="-15.4" font-family="Times-12" font-size="14.00"> &#160;Declarations</text>
<polygon fill="#8dd3c7" stroke="transparent" points="413,-10 413,-30 433,-30 433,-10 413,-10"/>
<text text-anchor="start" x="436.73" y="-15.4" font-family="Times-12" font-size="14.00"> &#160;Module</text>
<polygon fill="#80b1d3" stroke="transparent" points="499,-10 499,-30 519,-30 519,-10 499,-10"/>
<text text-anchor="start" x="522.78" y="-15.4" font-family="Times-12" font-size="14.00"> &#160;Bootstrap</text>
<polygon fill="#fdb462" stroke="transparent" points="596,-10 596,-30 616,-30 616,-10 596,-10"/>
<text text-anchor="start" x="619.67" y="-15.4" font-family="Times-12" font-size="14.00"> &#160;Providers</text>
<polygon fill="#fb8072" stroke="transparent" points="692,-10 692,-30 712,-30 712,-10 692,-10"/>
<text text-anchor="start" x="715.73" y="-15.4" font-family="Times-12" font-size="14.00"> &#160;Exports</text>
<g id="clust1" class="cluster">
<title>cluster_AppModule</title>
<polygon fill="none" stroke="black" stroke-dasharray="1,5" points="412,-146 412,-347 778,-347 778,-146 412,-146"/>
</g>
<g id="clust3" class="cluster">
<title>cluster_AppModule_imports</title>
<polygon fill="none" stroke="black" points="558,-154 558,-282 770,-282 770,-154 558,-154"/>
</g>
<g id="clust6" class="cluster">
<title>cluster_AppModule_providers</title>
<polygon fill="none" stroke="black" points="420,-230 420,-282 550,-282 550,-230 420,-230"/>
</g>
<g id="clust7" class="cluster">
<title>cluster_AuthModule</title>
<polygon fill="none" stroke="black" stroke-dasharray="1,5" points="8,-146 8,-214 404,-214 404,-146 8,-146"/>
</g>
<g id="clust10" class="cluster">
<title>cluster_AuthModule_exports</title>
<polygon fill="none" stroke="black" points="290,-154 290,-206 396,-206 396,-154 290,-154"/>
</g>
<g id="clust12" class="cluster">
<title>cluster_AuthModule_providers</title>
<polygon fill="none" stroke="black" points="16,-154 16,-206 282,-206 282,-154 16,-154"/>
</g>
<g id="clust13" class="cluster">
<title>cluster_MailModule</title>
<polygon fill="none" stroke="black" stroke-dasharray="1,5" points="535,-70 535,-138 683,-138 683,-70 535,-70"/>
</g>
<g id="clust18" class="cluster">
<title>cluster_MailModule_providers</title>
<polygon fill="none" stroke="black" points="543,-78 543,-130 675,-130 675,-78 543,-78"/>
</g>
<g id="clust19" class="cluster">
<title>cluster_UsersModule</title>
<polygon fill="none" stroke="black" stroke-dasharray="1,5" points="786,-222 786,-290 1060,-290 1060,-222 786,-222"/>
</g>
<g id="clust22" class="cluster">
<title>cluster_UsersModule_exports</title>
<polygon fill="none" stroke="black" points="942,-230 942,-282 1052,-282 1052,-230 942,-230"/>
</g>
<g id="clust24" class="cluster">
<title>cluster_UsersModule_providers</title>
<polygon fill="none" stroke="black" points="794,-230 794,-282 934,-282 934,-230 794,-230"/>
</g>
<!-- AuthModule -->
<g id="node1" class="node">
<title>AuthModule</title>
<polygon fill="#8dd3c7" stroke="black" points="653.55,-274 650.55,-278 629.55,-278 626.55,-274 566.45,-274 566.45,-238 653.55,-238 653.55,-274"/>
<text text-anchor="middle" x="610" y="-251.8" font-family="Times,serif" font-size="14.00">AuthModule</text>
</g>
<!-- AppModule -->
<g id="node4" class="node">
<title>AppModule</title>
<polygon fill="#8dd3c7" stroke="black" points="682.66,-339 679.66,-343 658.66,-343 655.66,-339 599.34,-339 599.34,-303 682.66,-303 682.66,-339"/>
<text text-anchor="middle" x="641" y="-316.8" font-family="Times,serif" font-size="14.00">AppModule</text>
</g>
<!-- AuthModule&#45;&gt;AppModule -->
<g id="edge1" class="edge">
<title>AuthModule&#45;&gt;AppModule</title>
<path fill="none" stroke="black" d="M626.47,-274.11C626.47,-274.11 626.47,-292.99 626.47,-292.99"/>
<polygon fill="black" stroke="black" points="622.97,-292.99 626.47,-302.99 629.97,-292.99 622.97,-292.99"/>
</g>
<!-- AuthService  -->
<g id="node6" class="node">
<title>AuthService </title>
<polygon fill="#fb8072" stroke="black" points="387.98,-198 298.02,-198 298.02,-162 387.98,-162 387.98,-198"/>
<text text-anchor="middle" x="343" y="-175.8" font-family="Times,serif" font-size="14.00">AuthService </text>
</g>
<!-- AuthModule&#45;&gt;AuthService  -->
<g id="edge6" class="edge">
<title>AuthModule&#45;&gt;AuthService </title>
<path fill="none" stroke="black" stroke-dasharray="5,2" d="M566,-256C561.41,-256 558.39,-256 558.39,-256 558.39,-256 558.39,-180 558.39,-180 558.39,-180 397.89,-180 397.89,-180"/>
<polygon fill="black" stroke="black" points="397.89,-176.5 387.89,-180 397.89,-183.5 397.89,-176.5"/>
</g>
<!-- MailModule -->
<g id="node2" class="node">
<title>MailModule</title>
<polygon fill="#8dd3c7" stroke="black" points="651.99,-198 648.99,-202 627.99,-202 624.99,-198 566.01,-198 566.01,-162 651.99,-162 651.99,-198"/>
<text text-anchor="middle" x="609" y="-175.8" font-family="Times,serif" font-size="14.00">MailModule</text>
</g>
<!-- MailModule&#45;&gt;AppModule -->
<g id="edge2" class="edge">
<title>MailModule&#45;&gt;AppModule</title>
<path fill="none" stroke="black" d="M652,-180C657.08,-180 660.5,-180 660.5,-180 660.5,-180 660.5,-292.86 660.5,-292.86"/>
<polygon fill="black" stroke="black" points="657,-292.86 660.5,-302.86 664,-292.86 657,-292.86"/>
</g>
<!-- UsersModule -->
<g id="node3" class="node">
<title>UsersModule</title>
<polygon fill="#8dd3c7" stroke="black" points="761.92,-198 758.92,-202 737.92,-202 734.92,-198 670.08,-198 670.08,-162 761.92,-162 761.92,-198"/>
<text text-anchor="middle" x="716" y="-175.8" font-family="Times,serif" font-size="14.00">UsersModule</text>
</g>
<!-- UsersModule&#45;&gt;AuthModule -->
<g id="edge5" class="edge">
<title>UsersModule&#45;&gt;AuthModule</title>
<path fill="none" stroke="black" d="M674.47,-198.2C674.47,-222.36 674.47,-262 674.47,-262 674.47,-262 663.72,-262 663.72,-262"/>
<polygon fill="black" stroke="black" points="663.72,-258.5 653.72,-262 663.72,-265.5 663.72,-258.5"/>
</g>
<!-- UsersModule&#45;&gt;AppModule -->
<g id="edge3" class="edge">
<title>UsersModule&#45;&gt;AppModule</title>
<path fill="none" stroke="black" d="M678.65,-198.14C678.65,-198.14 678.65,-292.93 678.65,-292.93"/>
<polygon fill="black" stroke="black" points="675.15,-292.92 678.65,-302.93 682.15,-292.93 675.15,-292.92"/>
</g>
<!-- UsersService  -->
<g id="node10" class="node">
<title>UsersService </title>
<polygon fill="#fb8072" stroke="black" points="1043.85,-274 950.15,-274 950.15,-238 1043.85,-238 1043.85,-274"/>
<text text-anchor="middle" x="997" y="-251.8" font-family="Times,serif" font-size="14.00">UsersService </text>
</g>
<!-- UsersModule&#45;&gt;UsersService  -->
<g id="edge10" class="edge">
<title>UsersModule&#45;&gt;UsersService </title>
<path fill="none" stroke="black" stroke-dasharray="5,2" d="M761.77,-180C841.4,-180 997,-180 997,-180 997,-180 997,-227.99 997,-227.99"/>
<polygon fill="black" stroke="black" points="993.5,-227.99 997,-237.99 1000.5,-227.99 993.5,-227.99"/>
</g>
<!-- AppService -->
<g id="node5" class="node">
<title>AppService</title>
<ellipse fill="#fdb462" stroke="black" cx="485" cy="-256" rx="56.74" ry="18"/>
<text text-anchor="middle" x="485" y="-251.8" font-family="Times,serif" font-size="14.00">AppService</text>
</g>
<!-- AppService&#45;&gt;AppModule -->
<g id="edge4" class="edge">
<title>AppService&#45;&gt;AppModule</title>
<path fill="none" stroke="black" d="M485,-274.11C485,-293.34 485,-321 485,-321 485,-321 589.19,-321 589.19,-321"/>
<polygon fill="black" stroke="black" points="589.19,-324.5 599.19,-321 589.19,-317.5 589.19,-324.5"/>
</g>
<!-- AuthService -->
<g id="node7" class="node">
<title>AuthService</title>
<ellipse fill="#fdb462" stroke="black" cx="215" cy="-180" rx="59.11" ry="18"/>
<text text-anchor="middle" x="215" y="-175.8" font-family="Times,serif" font-size="14.00">AuthService</text>
</g>
<!-- AuthService&#45;&gt;AuthModule -->
<g id="edge7" class="edge">
<title>AuthService&#45;&gt;AuthModule</title>
<path fill="none" stroke="black" d="M215,-198.24C215,-205.43 215,-212 215,-212 215,-212 623.41,-212 623.41,-212 623.41,-212 623.41,-227.85 623.41,-227.85"/>
<polygon fill="black" stroke="black" points="619.91,-227.85 623.41,-237.85 626.91,-227.85 619.91,-227.85"/>
</g>
<!-- JwtStrategy -->
<g id="node8" class="node">
<title>JwtStrategy</title>
<ellipse fill="#fdb462" stroke="black" cx="81" cy="-180" rx="56.76" ry="18"/>
<text text-anchor="middle" x="81" y="-175.8" font-family="Times,serif" font-size="14.00">JwtStrategy</text>
</g>
<!-- JwtStrategy&#45;&gt;AuthModule -->
<g id="edge8" class="edge">
<title>JwtStrategy&#45;&gt;AuthModule</title>
<path fill="none" stroke="black" d="M81,-198.04C81,-210.56 81,-225 81,-225 81,-225 594.82,-225 594.82,-225 594.82,-225 594.82,-227.97 594.82,-227.97"/>
<polygon fill="black" stroke="black" points="591.32,-227.97 594.82,-237.97 598.32,-227.97 591.32,-227.97"/>
</g>
<!-- MailService -->
<g id="node9" class="node">
<title>MailService</title>
<ellipse fill="#fdb462" stroke="black" cx="609" cy="-104" rx="58.46" ry="18"/>
<text text-anchor="middle" x="609" y="-99.8" font-family="Times,serif" font-size="14.00">MailService</text>
</g>
<!-- MailService&#45;&gt;MailModule -->
<g id="edge9" class="edge">
<title>MailService&#45;&gt;MailModule</title>
<path fill="none" stroke="black" d="M609,-122.01C609,-122.01 609,-151.85 609,-151.85"/>
<polygon fill="black" stroke="black" points="605.5,-151.85 609,-161.85 612.5,-151.85 605.5,-151.85"/>
</g>
<!-- UsersService -->
<g id="node11" class="node">
<title>UsersService</title>
<ellipse fill="#fdb462" stroke="black" cx="864" cy="-256" rx="61.95" ry="18"/>
<text text-anchor="middle" x="864" y="-251.8" font-family="Times,serif" font-size="14.00">UsersService</text>
</g>
<!-- UsersService&#45;&gt;UsersModule -->
<g id="edge11" class="edge">
<title>UsersService&#45;&gt;UsersModule</title>
<path fill="none" stroke="black" d="M805.53,-250C766.49,-250 722.27,-250 722.27,-250 722.27,-250 722.27,-208.03 722.27,-208.03"/>
<polygon fill="black" stroke="black" points="725.77,-208.03 722.27,-198.03 718.77,-208.03 725.77,-208.03"/>
</g>
</g>
</svg>
